<mxfile host="app.diagrams.net" modified="2023-06-12T19:41:42.967Z" agent="Mozilla/5.0 (Windows NT 10.0; Win64; x64) AppleWebKit/537.36 (KHTML, like Gecko) Chrome/114.0.0.0 Safari/537.36" etag="q3e50I8EwFYQjgd-YwDe" version="21.3.8" type="device">
  <diagram name="‫עמוד-1‬" id="U6PqjB9ST6Fruxpk7ji_">
    <mxGraphModel dx="1195" dy="660" grid="1" gridSize="10" guides="1" tooltips="1" connect="1" arrows="1" fold="1" page="1" pageScale="1" pageWidth="827" pageHeight="1169" math="0" shadow="0">
      <root>
        <mxCell id="0" />
        <mxCell id="1" parent="0" />
        <mxCell id="75qFJp3x3p-vrbAK8ful-4" style="edgeStyle=orthogonalEdgeStyle;rounded=0;orthogonalLoop=1;jettySize=auto;html=1;exitX=1;exitY=0;exitDx=0;exitDy=0;entryX=0;entryY=0.5;entryDx=0;entryDy=0;" edge="1" parent="1" source="75qFJp3x3p-vrbAK8ful-1" target="75qFJp3x3p-vrbAK8ful-5">
          <mxGeometry relative="1" as="geometry">
            <mxPoint x="350" y="191" as="targetPoint" />
            <Array as="points">
              <mxPoint x="250" y="221" />
            </Array>
          </mxGeometry>
        </mxCell>
        <mxCell id="75qFJp3x3p-vrbAK8ful-6" value="ecoSystem = npm" style="edgeLabel;html=1;align=center;verticalAlign=middle;resizable=0;points=[];" vertex="1" connectable="0" parent="75qFJp3x3p-vrbAK8ful-4">
          <mxGeometry x="0.3368" y="2" relative="1" as="geometry">
            <mxPoint x="-3" y="-8" as="offset" />
          </mxGeometry>
        </mxCell>
        <mxCell id="75qFJp3x3p-vrbAK8ful-1" value="ScanController" style="rounded=1;whiteSpace=wrap;html=1;" vertex="1" parent="1">
          <mxGeometry x="130" y="281" width="120" height="60" as="geometry" />
        </mxCell>
        <mxCell id="75qFJp3x3p-vrbAK8ful-2" value="" style="endArrow=classic;html=1;rounded=0;entryX=0;entryY=0.5;entryDx=0;entryDy=0;" edge="1" parent="1" target="75qFJp3x3p-vrbAK8ful-1">
          <mxGeometry width="50" height="50" relative="1" as="geometry">
            <mxPoint x="40" y="311" as="sourcePoint" />
            <mxPoint x="90" y="301" as="targetPoint" />
          </mxGeometry>
        </mxCell>
        <mxCell id="75qFJp3x3p-vrbAK8ful-3" value="/api/v1/scan" style="edgeLabel;html=1;align=center;verticalAlign=middle;resizable=0;points=[];" vertex="1" connectable="0" parent="75qFJp3x3p-vrbAK8ful-2">
          <mxGeometry x="-0.2667" y="-5" relative="1" as="geometry">
            <mxPoint x="7" y="5" as="offset" />
          </mxGeometry>
        </mxCell>
        <mxCell id="75qFJp3x3p-vrbAK8ful-11" style="edgeStyle=orthogonalEdgeStyle;rounded=0;orthogonalLoop=1;jettySize=auto;html=1;exitX=0.5;exitY=1;exitDx=0;exitDy=0;entryX=1;entryY=0.5;entryDx=0;entryDy=0;" edge="1" parent="1" source="75qFJp3x3p-vrbAK8ful-5" target="75qFJp3x3p-vrbAK8ful-1">
          <mxGeometry relative="1" as="geometry" />
        </mxCell>
        <mxCell id="75qFJp3x3p-vrbAK8ful-12" value="IResponse" style="edgeLabel;html=1;align=center;verticalAlign=middle;resizable=0;points=[];" vertex="1" connectable="0" parent="75qFJp3x3p-vrbAK8ful-11">
          <mxGeometry x="-0.0193" y="-2" relative="1" as="geometry">
            <mxPoint x="-10" y="12" as="offset" />
          </mxGeometry>
        </mxCell>
        <mxCell id="75qFJp3x3p-vrbAK8ful-47" style="edgeStyle=orthogonalEdgeStyle;rounded=0;orthogonalLoop=1;jettySize=auto;html=1;exitX=1;exitY=0.5;exitDx=0;exitDy=0;entryX=0.25;entryY=0;entryDx=0;entryDy=0;" edge="1" parent="1" source="75qFJp3x3p-vrbAK8ful-5" target="75qFJp3x3p-vrbAK8ful-36">
          <mxGeometry relative="1" as="geometry" />
        </mxCell>
        <mxCell id="75qFJp3x3p-vrbAK8ful-48" value="uses" style="edgeLabel;html=1;align=center;verticalAlign=middle;resizable=0;points=[];" vertex="1" connectable="0" parent="75qFJp3x3p-vrbAK8ful-47">
          <mxGeometry x="-0.2706" y="-2" relative="1" as="geometry">
            <mxPoint y="13" as="offset" />
          </mxGeometry>
        </mxCell>
        <mxCell id="75qFJp3x3p-vrbAK8ful-5" value="NpmHandler" style="rounded=1;whiteSpace=wrap;html=1;" vertex="1" parent="1">
          <mxGeometry x="354" y="191" width="120" height="60" as="geometry" />
        </mxCell>
        <mxCell id="75qFJp3x3p-vrbAK8ful-32" style="edgeStyle=orthogonalEdgeStyle;rounded=0;orthogonalLoop=1;jettySize=auto;html=1;entryX=0;entryY=0.5;entryDx=0;entryDy=0;" edge="1" parent="1" source="75qFJp3x3p-vrbAK8ful-7" target="75qFJp3x3p-vrbAK8ful-22">
          <mxGeometry relative="1" as="geometry" />
        </mxCell>
        <mxCell id="75qFJp3x3p-vrbAK8ful-33" value="uses&amp;nbsp;" style="edgeLabel;html=1;align=center;verticalAlign=middle;resizable=0;points=[];" vertex="1" connectable="0" parent="75qFJp3x3p-vrbAK8ful-32">
          <mxGeometry x="0.1741" y="2" relative="1" as="geometry">
            <mxPoint y="14" as="offset" />
          </mxGeometry>
        </mxCell>
        <mxCell id="75qFJp3x3p-vrbAK8ful-7" value="BaseHandler" style="rounded=1;whiteSpace=wrap;html=1;" vertex="1" parent="1">
          <mxGeometry x="352" y="105" width="126" height="50" as="geometry" />
        </mxCell>
        <mxCell id="75qFJp3x3p-vrbAK8ful-8" value="IHandler" style="rounded=1;whiteSpace=wrap;html=1;" vertex="1" parent="1">
          <mxGeometry x="354" y="20" width="120" height="50" as="geometry" />
        </mxCell>
        <mxCell id="75qFJp3x3p-vrbAK8ful-13" value="IResponse" style="rounded=1;whiteSpace=wrap;html=1;" vertex="1" parent="1">
          <mxGeometry x="160" y="390" width="120" height="50" as="geometry" />
        </mxCell>
        <mxCell id="75qFJp3x3p-vrbAK8ful-16" value="MessageResponse" style="rounded=1;whiteSpace=wrap;html=1;" vertex="1" parent="1">
          <mxGeometry x="250" y="470" width="120" height="50" as="geometry" />
        </mxCell>
        <mxCell id="75qFJp3x3p-vrbAK8ful-17" value="ScanResponse" style="rounded=1;whiteSpace=wrap;html=1;" vertex="1" parent="1">
          <mxGeometry x="70" y="470" width="120" height="50" as="geometry" />
        </mxCell>
        <mxCell id="75qFJp3x3p-vrbAK8ful-20" value="&lt;font style=&quot;font-size: 10px;&quot;&gt;ScanRequest&lt;/font&gt;" style="text;html=1;align=center;verticalAlign=middle;resizable=0;points=[];autosize=1;strokeColor=none;fillColor=none;" vertex="1" parent="1">
          <mxGeometry x="40" y="279" width="80" height="30" as="geometry" />
        </mxCell>
        <mxCell id="75qFJp3x3p-vrbAK8ful-25" value="" style="edgeStyle=orthogonalEdgeStyle;rounded=0;orthogonalLoop=1;jettySize=auto;html=1;" edge="1" parent="1" source="75qFJp3x3p-vrbAK8ful-22" target="75qFJp3x3p-vrbAK8ful-24">
          <mxGeometry relative="1" as="geometry" />
        </mxCell>
        <mxCell id="75qFJp3x3p-vrbAK8ful-22" value="IVulnerabilityScanner" style="rounded=1;whiteSpace=wrap;html=1;" vertex="1" parent="1">
          <mxGeometry x="580" y="7" width="160" height="50" as="geometry" />
        </mxCell>
        <mxCell id="75qFJp3x3p-vrbAK8ful-42" style="edgeStyle=orthogonalEdgeStyle;rounded=0;orthogonalLoop=1;jettySize=auto;html=1;" edge="1" parent="1" source="75qFJp3x3p-vrbAK8ful-24" target="75qFJp3x3p-vrbAK8ful-35">
          <mxGeometry relative="1" as="geometry" />
        </mxCell>
        <mxCell id="75qFJp3x3p-vrbAK8ful-43" value="uses" style="edgeLabel;html=1;align=center;verticalAlign=middle;resizable=0;points=[];" vertex="1" connectable="0" parent="75qFJp3x3p-vrbAK8ful-42">
          <mxGeometry x="0.2007" relative="1" as="geometry">
            <mxPoint x="-19" as="offset" />
          </mxGeometry>
        </mxCell>
        <mxCell id="75qFJp3x3p-vrbAK8ful-44" style="edgeStyle=orthogonalEdgeStyle;rounded=0;orthogonalLoop=1;jettySize=auto;html=1;exitX=0.25;exitY=1;exitDx=0;exitDy=0;entryX=0.5;entryY=0;entryDx=0;entryDy=0;" edge="1" parent="1" source="75qFJp3x3p-vrbAK8ful-24" target="75qFJp3x3p-vrbAK8ful-36">
          <mxGeometry relative="1" as="geometry" />
        </mxCell>
        <mxCell id="75qFJp3x3p-vrbAK8ful-46" value="uses" style="edgeLabel;html=1;align=center;verticalAlign=middle;resizable=0;points=[];" vertex="1" connectable="0" parent="75qFJp3x3p-vrbAK8ful-44">
          <mxGeometry x="-0.1345" y="-2" relative="1" as="geometry">
            <mxPoint x="-9" as="offset" />
          </mxGeometry>
        </mxCell>
        <mxCell id="75qFJp3x3p-vrbAK8ful-24" value="GithubVulnerabilityScanner" style="rounded=1;whiteSpace=wrap;html=1;" vertex="1" parent="1">
          <mxGeometry x="580" y="97" width="160" height="52" as="geometry" />
        </mxCell>
        <mxCell id="75qFJp3x3p-vrbAK8ful-28" value="" style="endArrow=block;dashed=1;endFill=0;endSize=12;html=1;rounded=0;exitX=0.5;exitY=0;exitDx=0;exitDy=0;entryX=0.5;entryY=1;entryDx=0;entryDy=0;" edge="1" parent="1" source="75qFJp3x3p-vrbAK8ful-5" target="75qFJp3x3p-vrbAK8ful-7">
          <mxGeometry width="160" relative="1" as="geometry">
            <mxPoint x="530" y="180" as="sourcePoint" />
            <mxPoint x="580" y="330" as="targetPoint" />
            <Array as="points" />
          </mxGeometry>
        </mxCell>
        <mxCell id="75qFJp3x3p-vrbAK8ful-34" value="" style="endArrow=block;dashed=1;endFill=0;endSize=12;html=1;rounded=0;exitX=0.5;exitY=0;exitDx=0;exitDy=0;entryX=0.5;entryY=1;entryDx=0;entryDy=0;" edge="1" parent="1" source="75qFJp3x3p-vrbAK8ful-7" target="75qFJp3x3p-vrbAK8ful-8">
          <mxGeometry width="160" relative="1" as="geometry">
            <mxPoint x="560" y="290" as="sourcePoint" />
            <mxPoint x="720" y="290" as="targetPoint" />
          </mxGeometry>
        </mxCell>
        <mxCell id="75qFJp3x3p-vrbAK8ful-35" value="SecurityVulnerabilities" style="rounded=1;whiteSpace=wrap;html=1;" vertex="1" parent="1">
          <mxGeometry x="650" y="280" width="140" height="52" as="geometry" />
        </mxCell>
        <mxCell id="75qFJp3x3p-vrbAK8ful-36" value="Dependency" style="rounded=1;whiteSpace=wrap;html=1;" vertex="1" parent="1">
          <mxGeometry x="474" y="348" width="130" height="52" as="geometry" />
        </mxCell>
        <mxCell id="75qFJp3x3p-vrbAK8ful-37" value="VulnerableDependency" style="rounded=1;whiteSpace=wrap;html=1;" vertex="1" parent="1">
          <mxGeometry x="474" y="430" width="130" height="52" as="geometry" />
        </mxCell>
        <mxCell id="75qFJp3x3p-vrbAK8ful-39" value="" style="endArrow=block;dashed=1;endFill=0;endSize=12;html=1;rounded=0;entryX=0.5;entryY=1;entryDx=0;entryDy=0;exitX=0.5;exitY=0;exitDx=0;exitDy=0;" edge="1" parent="1" source="75qFJp3x3p-vrbAK8ful-37" target="75qFJp3x3p-vrbAK8ful-36">
          <mxGeometry width="160" relative="1" as="geometry">
            <mxPoint x="324" y="490" as="sourcePoint" />
            <mxPoint x="484" y="490" as="targetPoint" />
          </mxGeometry>
        </mxCell>
        <mxCell id="75qFJp3x3p-vrbAK8ful-40" value="" style="endArrow=block;dashed=1;endFill=0;endSize=12;html=1;rounded=0;entryX=1;entryY=0.5;entryDx=0;entryDy=0;exitX=0.5;exitY=0;exitDx=0;exitDy=0;" edge="1" parent="1" source="75qFJp3x3p-vrbAK8ful-16" target="75qFJp3x3p-vrbAK8ful-13">
          <mxGeometry width="160" relative="1" as="geometry">
            <mxPoint x="314" y="350" as="sourcePoint" />
            <mxPoint x="474" y="350" as="targetPoint" />
          </mxGeometry>
        </mxCell>
        <mxCell id="75qFJp3x3p-vrbAK8ful-41" value="" style="endArrow=block;dashed=1;endFill=0;endSize=12;html=1;rounded=0;entryX=0;entryY=0.5;entryDx=0;entryDy=0;exitX=0.5;exitY=0;exitDx=0;exitDy=0;" edge="1" parent="1" source="75qFJp3x3p-vrbAK8ful-17" target="75qFJp3x3p-vrbAK8ful-13">
          <mxGeometry width="160" relative="1" as="geometry">
            <mxPoint x="314" y="414.58" as="sourcePoint" />
            <mxPoint x="474" y="414.58" as="targetPoint" />
          </mxGeometry>
        </mxCell>
      </root>
    </mxGraphModel>
  </diagram>
</mxfile>
